# This file uses centimeters as units for non-parametric coordinates.

mtllib NewGround_DesertLevel_01.mtl
v -22.581223 -0.000000 6.988661
v -7.621113 -0.000000 6.988661
v -22.581223 0.000000 -10.524318
v -7.621113 0.000000 -10.524318
v -22.581223 -0.000000 24.501640
v -7.621113 -0.000000 24.501640
v 7.338998 -0.000000 24.501640
v 7.338998 -0.000000 6.988661
v 7.338998 0.000000 -10.524318
vt 0.117493 0.500000
vt 0.500000 0.500000
vt 0.500000 0.947781
vt 0.117493 0.947781
vt 0.117493 0.052219
vt 0.500000 0.052219
vt 0.500000 0.500000
vt 0.117493 0.500000
vt 0.500000 0.052219
vt 0.882507 0.052219
vt 0.882507 0.500000
vt 0.500000 0.500000
vt 0.500000 0.500000
vt 0.882507 0.500000
vt 0.882507 0.947781
vt 0.500000 0.947781
vn 0.000000 1.000000 0.000000
vn 0.000000 1.000000 0.000000
vn 0.000000 1.000000 0.000000
vn 0.000000 1.000000 0.000000
vn 0.000000 1.000000 0.000000
vn 0.000000 1.000000 0.000000
vn 0.000000 1.000000 0.000000
vn 0.000000 1.000000 0.000000
vn 0.000000 1.000000 0.000000
vn 0.000000 1.000000 0.000000
vn 0.000000 1.000000 0.000000
vn 0.000000 1.000000 0.000000
vn 0.000000 1.000000 0.000000
vn 0.000000 1.000000 0.000000
vn 0.000000 1.000000 0.000000
vn 0.000000 1.000000 0.000000
s off
usemtl blinn3SG
f 1/1/1 2/2/2 4/3/3 3/4/4
f 5/5/5 6/6/6 2/7/7 1/8/8
f 6/9/9 7/10/10 8/11/11 2/12/12
f 2/13/13 8/14/14 9/15/15 4/16/16
