# This file uses centimeters as units for non-parametric coordinates.

mtllib RoadTest3.mtl
v -8.500000 -0.000000 2.500000
v -3.000000 -0.000000 2.500000
v -8.500000 0.000000 1.500000
v -3.000000 0.000000 1.500000
v -3.785715 0.000000 1.500000
v -3.785715 -0.000000 2.500000
v -4.571429 0.000000 1.500000
v -4.571429 -0.000000 2.500000
v -5.357143 0.000000 1.500000
v -5.357143 -0.000000 2.500000
v -6.142857 0.000000 1.500000
v -6.142857 -0.000000 2.500000
v -6.928571 0.000000 1.500000
v -6.928571 -0.000000 2.500000
v -7.714286 0.000000 1.500000
v -7.714286 -0.000000 2.500000
vt 0.000000 0.000000
vt 5.499273 0.000094
vt 0.000000 1.000000
vt 5.499273 0.999906
vt 4.713663 0.999920
vt 4.713663 0.000080
vt 3.928052 0.999933
vt 3.928052 0.000067
vt 3.142442 0.999946
vt 3.142442 0.000054
vt 2.356831 0.999960
vt 2.356831 0.000040
vt 1.571221 0.999973
vt 1.571221 0.000027
vt 0.785610 0.999987
vt 0.785610 0.000013
vn 0.000000 1.000000 0.000000
vn 0.000000 1.000000 0.000000
vn 0.000000 1.000000 0.000000
vn 0.000000 1.000000 0.000000
vn 0.000000 1.000000 0.000000
vn 0.000000 1.000000 0.000000
vn 0.000000 1.000000 0.000000
vn 0.000000 1.000000 0.000000
vn 0.000000 1.000000 0.000000
vn 0.000000 1.000000 0.000000
vn 0.000000 1.000000 0.000000
vn 0.000000 1.000000 0.000000
vn 0.000000 1.000000 0.000000
vn 0.000000 1.000000 0.000000
vn 0.000000 1.000000 0.000000
vn 0.000000 1.000000 0.000000
s 1
usemtl blinn1SG
f 6/6/1 2/2/2 4/4/3 5/5/4
f 8/8/5 6/6/1 5/5/4 7/7/6
f 10/10/7 8/8/5 7/7/6 9/9/8
f 12/12/9 10/10/7 9/9/8 11/11/10
f 14/14/11 12/12/9 11/11/10 13/13/12
f 16/16/13 14/14/11 13/13/12 15/15/14
f 1/1/15 16/16/13 15/15/14 3/3/16
