# This file uses centimeters as units for non-parametric coordinates.

mtllib Cliff_01.mtl
g default
v 0.718016 0.000000 -0.925291
v -0.163638 0.000000 -1.185456
v -0.772562 0.000000 -0.761653
v -1.130910 0.000000 -0.043637
v -1.045292 0.000000 1.012564
v -0.141819 0.000000 1.305457
v 0.532560 0.000000 0.488923
v 1.207275 0.000000 0.054546
v 0.000000 0.000000 0.000000
v 0.000000 2.000000 0.000000
v 0.687531 1.383852 -0.881109
v -0.154588 1.383852 -1.129608
v -0.736207 1.383852 -0.724809
v -1.078486 1.383853 -0.038990
v -0.996707 1.383853 0.969850
v -0.133748 1.383853 1.249609
v 0.510391 1.383853 0.469689
v 1.154851 1.383853 0.054790
v 0.767840 1.974621 -0.997696
v 0.715193 2.064974 -0.945139
v 1.236972 1.973079 0.049567
v 1.147456 2.064974 0.017343
v -0.103504 1.909655 -1.215204
v -0.075525 2.000000 -1.142542
v -0.789536 1.947119 -0.838863
v -0.744076 2.039417 -0.773558
v -1.181572 1.907703 -0.053684
v -1.103039 2.000000 -0.054623
v -1.063601 1.978906 1.020047
v -0.993414 2.073039 0.948462
v -0.136827 1.905578 1.318121
v -0.154089 2.000000 1.218463
v 0.559955 1.905700 0.533776
v 0.504969 2.000000 0.476684
vt 0.250215 0.106908
vt 0.069715 0.189261
vt 0.030447 0.344494
vt 0.073647 0.512219
vt 0.237050 0.672243
vt 0.425736 0.592130
vt 0.420130 0.363624
vt 0.468600 0.197366
vt 0.264086 0.359322
vt 0.401048 0.701826
vt 0.519352 0.701826
vt 0.519046 0.886902
vt 0.400278 0.886902
vt 0.614775 0.701826
vt 0.614811 0.886902
vt 0.718339 0.701826
vt 0.717750 0.886902
vt 0.855237 0.701826
vt 0.852793 0.886902
vt 0.016007 0.701826
vt 0.025112 0.886902
vt 0.156064 0.701826
vt 0.158255 0.886902
vt 0.260014 0.701826
vt 0.260145 0.886902
vt 0.402220 0.965911
vt 0.402565 0.977995
vt 0.263159 0.977995
vt 0.261169 0.965705
vt 0.511993 0.957222
vt 0.509575 0.969305
vt 0.157225 0.969305
vt 0.157568 0.956693
vt 0.608711 0.962233
vt 0.610790 0.974577
vt 0.718366 0.956961
vt 0.716709 0.969305
vt 0.852695 0.966484
vt 0.850970 0.979073
vt 0.972658 0.956677
vt 0.029401 0.969305
vt 0.712873 0.367333
vt 0.692374 0.654387
vt 0.924874 0.548202
vt 0.881122 0.361314
vt 0.880094 0.120962
vt 0.683677 0.035153
vt 0.503121 0.200915
vt 0.453407 0.389330
vt 0.516426 0.563481
vt 0.973082 0.886902
vt 0.020793 0.956677
vt 0.966461 0.969305
vt 0.979673 0.701826
vn -0.105093 -0.269385 -0.957281
vn 0.644821 -0.272221 -0.714214
vn 0.000000 -1.000000 0.000000
vn -0.730431 -0.287865 -0.619359
vn -0.942793 -0.300534 -0.144292
vn -0.773486 -0.281002 0.568118
vn 0.298746 -0.257621 0.918903
vn 0.656519 -0.259074 0.708423
vn 0.967650 -0.220421 0.122755
vn -0.114408 -0.029536 -0.992995
vn 0.678112 -0.034804 -0.734134
vn -0.761056 -0.025816 -0.648172
vn -0.988334 -0.024332 -0.150346
vn -0.804861 -0.016440 0.593235
vn 0.311986 -0.015140 0.949966
vn 0.679201 -0.016716 0.733762
vn 0.990965 -0.032463 0.130131
vn 0.690077 -0.075874 -0.719748
vn 0.084459 0.986025 -0.143605
vn 0.204936 0.976813 0.061957
vn 0.994900 -0.055374 0.084313
vn -0.077065 -0.077979 -0.993972
vn -0.035982 0.977567 -0.207527
vn 0.113896 0.977254 0.178894
vn 0.672893 0.027575 0.739225
vn -0.732855 -0.030298 -0.679709
vn -0.123353 0.986269 -0.109803
vn -0.989200 -0.043645 -0.139922
vn -0.196996 0.978849 -0.055201
vn -0.799471 -0.012331 0.600578
vn -0.132505 0.986425 0.096995
vn 0.254495 -0.005208 0.967060
vn 0.127410 0.964249 0.232359
vn -0.007380 0.999961 0.004940
s 1
g pCylinder1
usemtl blinn5SG
f 2/2/1 1/1/2 9/9/3
f 3/3/4 2/2/1 9/9/3
f 4/4/5 3/3/4 9/9/3
f 5/5/6 4/4/5 9/9/3
f 6/6/7 5/5/6 9/9/3
f 7/7/8 6/6/7 9/9/3
f 8/8/9 7/7/8 9/9/3
f 1/1/2 8/8/9 9/9/3
usemtl blinn4SG
f 1/10/2 2/11/1 12/12/10 11/13/11
f 2/11/1 3/14/4 13/15/12 12/12/10
f 3/14/4 4/16/5 14/17/13 13/15/12
f 4/16/5 5/18/6 15/19/14 14/17/13
f 5/18/6 6/54/7 16/51/15 15/19/14
f 6/20/7 7/22/8 17/23/16 16/21/15
f 7/22/8 8/24/9 18/25/17 17/23/16
f 8/24/9 1/10/2 11/13/11 18/25/17
usemtl blinn5SG
f 19/26/18 20/27/19 22/28/20 21/29/21
f 20/27/19 19/26/18 23/30/22 24/31/23
f 21/29/21 22/28/20 34/32/24 33/33/25
f 24/31/23 23/30/22 25/34/26 26/35/27
f 26/35/27 25/34/26 27/36/28 28/37/29
f 28/37/29 27/36/28 29/38/30 30/39/31
f 30/39/31 29/38/30 31/40/32 32/53/33
f 32/41/33 31/52/32 33/33/25 34/32/24
usemtl blinn4SG
f 11/13/11 19/26/18 21/29/21 18/25/17
f 19/26/18 11/13/11 12/12/10 23/30/22
f 23/30/22 12/12/10 13/15/12 25/34/26
f 25/34/26 13/15/12 14/17/13 27/36/28
f 27/36/28 14/17/13 15/19/14 29/38/30
f 29/38/30 15/19/14 16/51/15 31/40/32
f 31/52/32 16/21/15 17/23/16 33/33/25
f 33/33/25 17/23/16 18/25/17 21/29/21
usemtl blinn5SG
f 20/43/19 24/50/23 10/42/34
f 24/50/23 26/49/27 10/42/34
f 26/49/27 28/48/29 10/42/34
f 28/48/29 30/47/31 10/42/34
f 30/47/31 32/46/33 10/42/34
f 32/46/33 34/45/24 10/42/34
f 34/45/24 22/44/20 10/42/34
f 22/44/20 20/43/19 10/42/34
